<?xml version="1.0" standalone="no"?>
<!DOCTYPE svg PUBLIC "-//W3C//DTD SVG 20010904//EN"
 "http://www.w3.org/TR/2001/REC-SVG-20010904/DTD/svg10.dtd">
<svg version="1.0" xmlns="http://www.w3.org/2000/svg"
 width="80.000000pt" height="80.000000pt" viewBox="0 0 80.000000 80.000000"
 preserveAspectRatio="xMidYMid meet">

<g transform="translate(0.000000,80.000000) scale(0.100000,-0.100000)"
fill="#000000" stroke="none">
<path d="M303 710 c-33 -13 -29 -16 20 -12 25 2 50 -2 61 -11 17 -12 13 -13
-36 -9 -58 4 -75 -5 -103 -52 -9 -16 -13 -16 -47 -2 -54 23 -83 20 -119 -12
-24 -21 -32 -38 -36 -74 -3 -26 -3 -58 1 -72 9 -37 53 -84 100 -107 22 -12 62
-41 87 -66 l46 -44 6 30 c4 16 20 45 37 63 31 33 32 22 1 -17 -11 -14 -7 -13
12 4 15 14 28 23 30 20 1 -2 16 -33 32 -68 23 -49 30 -78 30 -126 l0 -62 40
18 c25 12 64 19 103 19 64 0 122 18 155 48 55 49 73 151 37 209 -20 34 -66 63
-97 63 -12 -1 -7 -5 12 -14 17 -7 37 -21 45 -32 15 -18 14 -18 -14 0 -21 14
-41 17 -77 14 l-48 -5 -16 48 c-16 48 -54 89 -81 89 -8 0 -14 5 -14 10 0 32
73 -21 98 -71 12 -24 22 -36 22 -26 0 43 -49 103 -91 112 -20 5 -29 14 -34 35
-9 40 -42 80 -81 96 -38 16 -50 16 -81 4z"/>
<path d="M59 643 c-85 -72 -74 -203 24 -274 55 -40 69 -37 15 4 -53 40 -78 88
-78 148 0 84 60 144 134 135 27 -3 35 -2 25 5 -29 18 -86 10 -120 -18z"/>
<path d="M354 314 c26 -66 46 -146 47 -189 1 -46 1 -48 10 -20 5 17 6 48 3 70
-8 52 -42 143 -56 151 -8 5 -9 1 -4 -12z"/>
</g>
</svg>
