<?xml version="1.0" standalone="no"?>
<!DOCTYPE svg PUBLIC "-//W3C//DTD SVG 20010904//EN"
 "http://www.w3.org/TR/2001/REC-SVG-20010904/DTD/svg10.dtd">
<svg version="1.0" xmlns="http://www.w3.org/2000/svg"
 width="250.000000pt" height="180.000000pt" viewBox="0 0 250.000000 180.000000"
 preserveAspectRatio="xMidYMid meet">

<g transform="translate(0.000000,180.000000) scale(0.100000,-0.100000)"
fill="#000000" stroke="none">
<path d="M1075 1651 c-29 -7 -85 -38 -85 -47 0 -3 15 3 33 12 41 22 103 22
145 0 43 -22 37 -29 -13 -15 -47 13 -107 7 -141 -16 -19 -12 -44 -51 -59 -92
-1 -1 -23 9 -50 23 -58 30 -135 30 -180 0 -40 -26 -69 -99 -68 -171 1 -109 50
-177 165 -232 73 -35 123 -75 159 -128 24 -35 43 -47 33 -21 -7 18 29 93 67
139 40 49 51 40 12 -10 -17 -21 -35 -49 -42 -63 l-12 -25 18 25 c10 13 27 35
38 48 l21 24 38 -124 c21 -70 41 -160 45 -204 l7 -79 8 66 c5 37 5 86 1 109
-7 42 -42 136 -76 202 -10 20 -15 39 -11 42 5 3 23 -30 41 -72 64 -149 73
-182 69 -254 -2 -38 -2 -68 0 -68 2 0 16 9 31 20 37 26 101 39 187 40 137 0
227 50 278 152 56 111 21 254 -74 303 -27 14 -110 30 -110 21 0 -3 17 -10 39
-16 40 -11 91 -45 91 -61 0 -5 -14 1 -31 13 -32 24 -105 31 -160 16 -23 -7
-26 -4 -38 40 -24 93 -82 162 -136 162 -8 0 -15 5 -15 11 0 17 50 1 87 -27 18
-13 46 -52 63 -87 25 -50 30 -55 26 -29 -15 86 -81 162 -140 162 -31 0 -34 3
-41 37 -15 80 -71 150 -135 168 -45 12 -55 13 -85 6z"/>
<path d="M721 1569 c-109 -55 -152 -209 -92 -327 26 -51 98 -115 168 -148 73
-34 77 -26 5 11 -122 64 -177 152 -170 273 4 84 37 141 98 172 52 26 93 25
158 -5 60 -28 61 -15 1 15 -62 32 -117 35 -168 9z"/>
<path d="M1543 475 c-43 -85 -80 -155 -84 -155 -3 0 -32 56 -65 125 l-59 124
-37 1 c-21 0 -38 -5 -38 -10 0 -19 190 -390 200 -390 13 0 232 438 225 450 -4
6 -19 10 -36 10 -28 0 -33 -8 -106 -155z"/>
<path d="M47 564 c-8 -14 0 -351 8 -364 6 -9 34 -11 100 -8 108 6 150 25 177
78 26 50 24 161 -2 216 -32 64 -58 77 -176 82 -56 2 -104 1 -107 -4z m198
-104 c12 -14 20 -41 23 -78 5 -76 -13 -99 -85 -108 l-53 -7 0 107 0 106 48 0
c36 0 54 -5 67 -20z"/>
<path d="M742 543 c2 -23 -1 -29 -19 -31 -19 -3 -23 -10 -23 -37 0 -27 4 -34
23 -37 21 -3 22 -9 27 -105 6 -118 14 -133 82 -140 53 -6 103 16 114 49 11 36
-46 64 -73 37 -7 -7 -19 -9 -28 -5 -13 5 -15 19 -13 83 l3 78 53 3 52 3 0 40
0 40 -52 -3 c-50 -3 -52 -2 -53 22 0 23 -4 25 -48 28 -48 3 -49 3 -45 -25z"/>
<path d="M1684 557 c-2 -7 -3 -91 -2 -187 l3 -175 30 0 c29 0 30 2 33 53 l3
52 34 0 c32 0 38 -5 66 -55 26 -47 35 -55 59 -55 41 0 45 15 16 67 -15 25 -25
47 -24 47 2 1 15 7 30 14 87 37 89 202 4 237 -47 20 -244 21 -252 2z m230 -83
c22 -21 20 -50 -4 -74 -16 -16 -33 -20 -90 -20 l-70 0 0 55 0 55 74 0 c54 0
79 -4 90 -16z"/>
<path d="M2036 555 c-3 -9 -6 -90 -6 -180 0 -175 4 -190 52 -183 l23 3 0 185
0 185 -31 3 c-22 2 -33 -2 -38 -13z"/>
<path d="M2327 563 c-4 -3 -7 -64 -7 -134 0 -141 -7 -159 -59 -159 -32 0 -45
13 -55 53 -5 22 -12 27 -37 27 -39 0 -46 -20 -24 -76 29 -75 112 -107 184 -69
50 25 61 66 61 224 l0 141 -28 0 c-16 0 -32 -3 -35 -7z"/>
<path d="M1082 510 c-90 -21 -130 -142 -82 -248 22 -49 64 -72 130 -72 78 0
156 54 128 88 -24 28 -57 33 -78 12 -34 -34 -110 -20 -110 20 0 19 7 20 99 20
97 0 99 0 105 25 9 34 -9 95 -34 122 -19 21 -79 44 -110 42 -8 -1 -30 -5 -48
-9z m88 -80 c24 -15 6 -21 -51 -18 -50 3 -52 4 -29 15 31 14 60 16 80 3z"/>
<path d="M435 479 c-39 -35 -45 -64 -15 -74 20 -6 20 -7 -5 -37 -27 -32 -34
-93 -14 -130 21 -40 115 -61 173 -38 16 6 27 6 31 0 7 -12 55 -13 71 -2 14 9
2 229 -14 259 -22 40 -52 53 -124 53 -61 0 -71 -3 -103 -31z m153 -69 c2 -12
-8 -14 -53 -12 -52 4 -64 10 -48 26 14 13 98 2 101 -14z m-1 -105 c8 -22 0
-27 -49 -32 -45 -5 -77 14 -63 37 10 17 105 13 112 -5z"/>
</g>
</svg>
