<?xml version="1.0" standalone="no"?>
<!DOCTYPE svg PUBLIC "-//W3C//DTD SVG 20010904//EN"
 "http://www.w3.org/TR/2001/REC-SVG-20010904/DTD/svg10.dtd">
<svg version="1.0" xmlns="http://www.w3.org/2000/svg"
 width="350.000000pt" height="100.000000pt" viewBox="0 0 350.000000 100.000000"
 preserveAspectRatio="xMidYMid meet">

<g transform="translate(0.000000,100.000000) scale(0.100000,-0.100000)"
fill="#000000" stroke="none">
<path d="M363 840 c-13 -5 -23 -11 -23 -12 0 -2 25 -3 55 -3 29 0 59 -5 66
-12 9 -9 -1 -11 -43 -6 -63 6 -104 -13 -114 -54 -5 -18 -11 -22 -23 -17 -78
33 -92 35 -130 17 -69 -34 -91 -131 -48 -208 15 -27 40 -50 77 -70 30 -16 76
-51 103 -77 28 -27 51 -48 53 -48 2 0 4 11 4 23 0 25 57 113 67 103 4 -3 -1
-14 -9 -23 -8 -10 -18 -25 -23 -33 -4 -8 4 -1 18 15 14 17 27 28 30 25 2 -3
20 -39 38 -80 26 -58 34 -89 34 -136 l0 -61 35 18 c20 10 76 22 132 27 81 8
103 14 132 35 42 32 76 100 76 151 0 76 -59 147 -120 145 -25 -1 -24 -1 3 -9
32 -10 57 -28 57 -41 0 -5 -11 -2 -24 6 -25 17 -78 22 -112 11 -18 -5 -22 0
-33 44 -13 50 -56 100 -87 100 -8 0 -14 5 -14 10 0 34 79 -25 106 -80 24 -47
32 -42 13 7 -15 40 -57 81 -90 88 -16 4 -29 12 -29 18 0 6 -10 31 -21 55 -16
33 -32 49 -63 63 -45 21 -60 22 -93 9z"/>
<path d="M134 790 c-31 -12 -81 -75 -89 -110 -11 -50 3 -117 33 -151 30 -36
99 -89 116 -89 6 0 -12 16 -41 35 -106 71 -125 215 -38 283 30 24 101 30 136
12 10 -6 19 -8 19 -5 0 10 -68 35 -92 34 -13 0 -32 -4 -44 -9z"/>
<path d="M1393 573 c9 -2 25 -2 35 0 9 3 1 5 -18 5 -19 0 -27 -2 -17 -5z"/>
<path d="M1598 573 c7 -3 16 -2 19 1 4 3 -2 6 -13 5 -11 0 -14 -3 -6 -6z"/>
<path d="M1733 573 c15 -2 39 -2 55 0 15 2 2 4 -28 4 -30 0 -43 -2 -27 -4z"/>
<path d="M1993 573 c9 -2 25 -2 35 0 9 3 1 5 -18 5 -19 0 -27 -2 -17 -5z"/>
<path d="M2643 443 c9 -2 25 -2 35 0 9 3 1 5 -18 5 -19 0 -27 -2 -17 -5z"/>
<path d="M432 377 c11 -34 26 -93 33 -132 l13 -70 1 62 c1 46 -6 80 -25 128
-34 85 -47 92 -22 12z"/>
<path d="M938 333 c6 -2 18 -2 25 0 6 3 1 5 -13 5 -14 0 -19 -2 -12 -5z"/>
<path d="M1078 333 c6 -2 18 -2 25 0 6 3 1 5 -13 5 -14 0 -19 -2 -12 -5z"/>
<path d="M1513 333 c9 -2 25 -2 35 0 9 3 1 5 -18 5 -19 0 -27 -2 -17 -5z"/>
</g>
</svg>
