<svg version="1" xmlns="http://www.w3.org/2000/svg" width="426.667" height="426.667" viewBox="0 0 320.000000 320.000000"><path d="M56.5 1.5C46.6 3.3 39 6.4 30.6 12.1c-11.5 7.7-21 19.4-25.7 31.8C0 56.9-.1 58.7.2 164.1c.4 109.4 0 102.5 7.3 117.4 6.7 13.7 17.2 24.2 31 31 14.9 7.4 8.4 7 121.5 7s106.6.4 121.5-7c13.8-6.8 24.2-17.2 31-31 7.4-14.9 7-8.4 7-121.5s.4-106.6-7-121.5c-6.8-13.8-17.3-24.3-31-31C266.6.1 273.7.6 163 .3 84.3.2 62 .4 56.5 1.5zm10 109.4c8 3.6 12.3 12.5 10.6 21.8-1 5.3-3 8.4-7.8 12-3.1 2.4-4.5 2.8-10.3 2.8-5.4 0-7.3-.5-10.1-2.4-12.7-8.7-11.3-27.9 2.6-34.2 5.1-2.4 9.9-2.4 15 0zm175 4.4c10.4 3 16.6 6.7 24.1 14.1 5.9 5.9 8.1 9 12.7 18.5 3.1 6.3 5.5 11.6 5.4 11.7-.2.2-5.2 2.5-11.3 5.2l-11 4.9-2.8-5.2c-6.2-12-14-17.7-26.3-19.5-3.8-.5-33.2-1-67.5-1H104v-31.1l65.8.3c58.7.4 66.3.6 71.7 2.1zm-178 59.8c8.9 2.5 13.8 9.2 13.8 19 0 14.5-14.4 23.5-27.3 16.9-8.1-4.2-12.1-15.3-8.6-24.4 1.9-5.1 7.3-10.3 11.4-11.2 1.5-.3 3.2-.7 3.7-.9 1.8-.6 2.9-.5 7 .6zM232 193.5V209H104v-14.8c0-8.2.3-15.2.7-15.5.3-.4 29.1-.7 64-.7H232v15.5z"/></svg>