<svg width="100" height="100" viewBox="0 0 100 100" xmlns="http://www.w3.org/2000/svg"><title>Datevrij_LogoMark_Padded</title><g fill="none" fill-rule="evenodd"><path d="M72.857 90H27.143C17.713 90 10 82.285 10 72.857V27.143C10 17.713 17.714 10 27.143 10h45.714C82.285 10 90 17.714 90 27.143v45.714C90 82.285 82.285 90 72.857 90" fill="#EF4F2B"/><path d="M36.139 62.278h31.739v-7.68H36.139v7.68zm-11.399-8.64c2.579 0 4.619 1.98 4.619 4.86 0 2.82-2.04 4.8-4.619 4.8-2.64 0-4.68-1.98-4.68-4.8 0-2.88 2.04-4.86 4.68-4.86zM65.058 38.338c9.72 0 12.96 4.44 15.84 11.58l-5.58 2.46c-1.92-4.14-3.54-6.36-9.78-6.36H36.14v-7.68h28.92zm-40.318-1.02c2.58 0 4.62 1.98 4.62 4.86 0 2.82-2.04 4.8-4.62 4.8-2.64 0-4.68-1.98-4.68-4.8 0-2.88 2.04-4.86 4.68-4.86z" fill="#FFF"/></g></svg>