<svg width="80" height="80" viewBox="0 0 80 80" xmlns="http://www.w3.org/2000/svg"><title>Datevrij_LogoMark_Unpadded</title><g fill="none" fill-rule="evenodd"><path d="M62.857 80H17.143C7.713 80 0 72.285 0 62.857V17.143C0 7.713 7.714 0 17.143 0h45.714C72.285 0 80 7.714 80 17.143v45.714C80 72.285 72.285 80 62.857 80" fill="#EF4F2B"/><path d="M26.139 52.278h31.739v-7.68H26.139v7.68zm-11.399-8.64c2.579 0 4.619 1.98 4.619 4.86 0 2.82-2.04 4.8-4.619 4.8-2.64 0-4.68-1.98-4.68-4.8 0-2.88 2.04-4.86 4.68-4.86zM55.058 28.338c9.72 0 12.96 4.44 15.84 11.58l-5.58 2.46c-1.92-4.14-3.54-6.36-9.78-6.36H26.14v-7.68h28.92zm-40.318-1.02c2.58 0 4.62 1.98 4.62 4.86 0 2.82-2.04 4.8-4.62 4.8-2.64 0-4.68-1.98-4.68-4.8 0-2.88 2.04-4.86 4.68-4.86z" fill="#FFF"/></g></svg>