<svg width="250" height="180" viewBox="0 0 250 180" xmlns="http://www.w3.org/2000/svg"><title>Datevrij_LogoBig_Neg</title><g fill="none" fill-rule="evenodd"><path d="M25.9 114.522L13 155.982h8.219l2.58-9.6h13.74l2.58 9.6h8.4l-12.84-41.46h-9.78zm4.739 6.06l5.34 19.8h-10.62l5.28-19.8zM51.999 148.72v-37.197l7.68-.841v37.799c0 1.5.54 2.22 1.799 2.22a5.38 5.38 0 0 0 1.801-.3l1.619 5.4c-1.319.6-3.119 1.08-5.099 1.08-4.86 0-7.8-2.94-7.8-8.16zM87.578 154.48c-2.28 1.62-5.16 2.4-7.98 2.4-6.24-.06-9.54-3.6-9.54-10.379v-16.74h-4.98v-5.52h4.98v-7.018l7.68-.9v7.919h7.38l-.78 5.52h-6.6v16.559c0 3.12 1.02 4.38 3.36 4.38 1.2 0 2.4-.36 3.78-1.2l2.7 4.98zM92.498 155.98h7.68v-31.739h-7.68v31.739zm8.64-43.138c0 2.58-1.979 4.62-4.859 4.62-2.821 0-4.8-2.04-4.8-4.62 0-2.64 1.979-4.679 4.8-4.679 2.88 0 4.859 2.039 4.859 4.679zM117.458 112.842c0 2.58-1.98 4.62-4.86 4.62-2.82 0-4.8-2.04-4.8-4.62 0-2.64 1.98-4.68 4.8-4.68 2.88 0 4.86 2.04 4.86 4.68zm-1.02 40.318c0 9.72-4.439 12.96-11.579 15.84l-2.46-5.58c4.14-1.92 6.359-3.54 6.359-9.78v-29.399h7.68v28.92zM142.898 146.981v-14.52c-1.68-2.1-3.48-3.359-6-3.359-4.02 0-6.66 3.359-6.66 10.979 0 8.16 2.34 10.98 6.12 10.98 2.82 0 4.74-1.38 6.54-4.08zm7.68-35.458v44.458h-6.78l-.54-4.021c-1.92 2.88-4.92 4.92-9.06 4.92-7.92 0-12.06-6.659-12.06-16.739 0-9.78 4.86-16.799 12.9-16.799 3.24 0 5.88 1.38 7.86 3.42v-16.08l7.68.841zM177.458 127.422l-1.62 2.28c-2.76-1.92-5.1-2.88-8.28-2.88-4.14 0-6.96 2.039-6.96 5.28 0 3.119 1.98 4.439 7.62 5.939 6.84 1.8 10.08 4.14 10.08 9.48 0 5.82-5.1 9.12-11.34 9.12-5.1 0-8.52-1.74-11.22-4.02l1.92-2.22c2.64 2.1 5.4 3.3 9.24 3.3 4.56 0 7.74-2.16 7.74-6 0-3.78-1.74-5.16-8.28-6.96-6.66-1.74-9.36-4.2-9.36-8.58 0-4.8 4.5-8.22 10.44-8.22 4.02 0 7.08 1.2 10.02 3.48M203.737 138.041c0-6.839-2.76-11.219-8.7-11.219-4.86 0-8.58 3.659-9 12.119h17.7v-.9zm3.3 3.6h-20.94c.42 8.52 4.38 12.06 9.78 12.06 3.42 0 5.7-1.08 8.46-3.12l1.62 2.22c-2.94 2.4-6.12 3.84-10.26 3.84-8.28 0-13.32-6-13.32-16.08 0-10.02 4.86-16.619 12.54-16.619 8.16 0 12.239 5.939 12.239 15.179 0 .96-.06 1.92-.12 2.52zM235.296 155.98h-4.2l-9.059-14.58-9 14.58h-4.02l11.04-16.678-9.6-14.7h4.08l7.68 12.54 7.74-12.54h3.96l-9.66 14.58z" fill="#E6E6E6"/><path d="M146.857 92h-45.714C91.713 92 84 84.285 84 74.857V29.143C84 19.713 91.714 12 101.143 12h45.714C156.285 12 164 19.714 164 29.143v45.714C164 84.285 156.285 92 146.857 92" fill="#EF4F2B"/><path d="M110.139 64.278h31.739v-7.68h-31.739v7.68zm-11.399-8.64c2.579 0 4.619 1.98 4.619 4.86 0 2.82-2.04 4.8-4.619 4.8-2.64 0-4.68-1.98-4.68-4.8 0-2.88 2.04-4.86 4.68-4.86zM139.058 40.338c9.72 0 12.96 4.44 15.84 11.58l-5.58 2.46c-1.92-4.14-3.54-6.36-9.78-6.36H110.14v-7.68h28.92zm-40.318-1.02c2.58 0 4.62 1.98 4.62 4.86 0 2.82-2.04 4.8-4.62 4.8-2.64 0-4.68-1.98-4.68-4.8 0-2.88 2.04-4.86 4.68-4.86z" fill="#FFF"/></g></svg>