<?xml version="1.0" standalone="no"?>
<!DOCTYPE svg PUBLIC "-//W3C//DTD SVG 20010904//EN"
 "http://www.w3.org/TR/2001/REC-SVG-20010904/DTD/svg10.dtd">
<svg version="1.0" xmlns="http://www.w3.org/2000/svg"
 width="260.000000pt" height="100.000000pt" viewBox="0 0 260.000000 100.000000"
 preserveAspectRatio="xMidYMid meet">

<g transform="translate(0.000000,100.000000) scale(0.100000,-0.100000)"
fill="#000000" stroke="none">
<path d="M1540 610 c-41 -82 -78 -150 -81 -150 -4 0 -34 56 -67 125 l-61 125
-35 0 c-20 0 -36 -5 -36 -10 0 -19 190 -390 200 -390 8 0 230 429 230 445 0 3
-17 5 -38 5 l-38 0 -74 -150z"/>
<path d="M744 697 c-3 -8 -4 -20 -2 -28 2 -8 -7 -15 -20 -17 -20 -3 -23 -8
-20 -40 2 -30 8 -38 26 -40 21 -3 22 -7 22 -98 0 -87 2 -97 25 -119 48 -49
175 -22 175 36 0 29 -43 46 -74 29 -37 -19 -46 -6 -46 75 l0 74 53 3 52 3 3
41 3 42 -53 -2 c-49 -1 -52 0 -53 24 0 22 -5 25 -43 28 -29 2 -44 -1 -48 -11z"/>
<path d="M1684 697 c-2 -7 -3 -91 -2 -187 l3 -175 33 -3 32 -3 0 55 0 56 34 0
c31 0 37 -5 66 -55 29 -50 35 -55 66 -55 41 0 42 10 9 66 l-25 42 36 21 c88
52 81 198 -11 237 -45 19 -233 20 -241 1z m228 -84 c22 -20 23 -42 2 -71 -13
-19 -24 -22 -90 -22 l-74 0 0 48 c0 27 3 52 7 55 3 4 36 7 71 7 47 0 71 -5 84
-17z"/>
<path d="M2036 695 c-9 -25 -7 -338 3 -353 5 -8 21 -12 37 -10 l29 3 0 185 0
185 -31 3 c-22 2 -33 -2 -38 -13z"/>
<path d="M2327 703 c-4 -3 -7 -62 -7 -130 0 -69 -5 -133 -10 -144 -7 -13 -21
-19 -44 -19 -37 0 -50 11 -60 53 -5 22 -12 27 -37 27 -39 0 -46 -20 -24 -76
21 -55 63 -84 120 -84 102 0 125 43 125 238 l0 142 -28 0 c-16 0 -32 -3 -35
-7z"/>
<path d="M45 518 l3 -183 104 0 c116 0 143 10 178 68 15 24 20 50 20 105 0 85
-15 128 -59 165 -31 26 -38 27 -141 27 l-108 0 3 -182z m196 83 c18 -14 23
-31 27 -77 6 -80 -14 -105 -86 -112 l-52 -5 0 107 0 106 44 0 c28 0 52 -7 67
-19z"/>
<path d="M465 638 c-61 -33 -85 -85 -45 -95 25 -7 25 -7 -5 -37 -35 -35 -35
-103 -1 -143 24 -28 25 -28 148 -28 l123 0 -4 105 c-4 121 -20 174 -62 195
-33 17 -125 19 -154 3z m115 -72 c0 -2 2 -10 5 -18 4 -10 -7 -12 -50 -10 -47
3 -54 6 -44 18 10 12 89 21 89 10z m-6 -112 c9 -3 16 -12 16 -19 0 -17 -23
-25 -71 -25 -42 0 -64 24 -38 41 16 10 70 12 93 3z"/>
<path d="M1039 627 c-39 -26 -58 -71 -58 -137 0 -106 50 -160 146 -160 57 0
96 15 127 48 21 24 16 36 -24 57 -28 14 -31 14 -50 -5 -34 -34 -110 -20 -110
20 0 19 7 20 99 20 97 0 99 0 105 25 10 40 -11 101 -45 129 -42 36 -139 37
-190 3z m139 -74 c2 -9 -11 -13 -47 -13 -48 0 -61 7 -44 24 12 11 86 2 91 -11z"/>
</g>
</svg>
